# xmcd CD database file generated by OrangeCD 5.2
#
# Track frame offsets:
#	150
#	13413
#	28550
#	39427
#	53263
#	66388
#	77490
#	87938
#	99712
#	112300
#	125988
#	138063
#	153863
#	168363
#	180700
#	192613
#	204075
#	216488
#	227100
#	242050
#	261313
#	275300
#	287188
#
# Disc length: 3959 seconds
#
# Revision: 1
# Processed by: cddbd v1.5.1PL2 Copyright (c) Steve Scherf et al.
# Submitted via: OrangeCD 5.2
#
DISCID=510f7517
DTITLE=Conway Twitty - 22 Golden Greats
DYEAR=1998
DGENRE=Country
TTITLE0=After All The Good Is Gone
TTITLE1=After Our Last Date
TTITLE2=As Soon As I Pick Up The Phone
TTITLE3=Baby's Gone
TTITLE4=Danny Boy
TTITLE5=Hello Darlin'
TTITLE6=(I Can't Believe) - She Gives It All To Me
TTITLE7=I Can't See Me Without You
TTITLE8=I've Hurt Her More Than She Loves Me
TTITLE9=Play The Games That Daddies Play
TTITLE10=She Needs Someone To Hold Her When She Cries
TTITLE11=Touch The Wind
TTITLE12=You've Never Been This Far Before
TTITLE13=I've Already Loved You In My Mind
TTITLE14=Linda On My Mind
TTITLE15=I'm Not Through Loving You Yet
TTITLE16=I See The Want To In Your Eyes
TTITLE17=It's Only Make Believe
TTITLE18=Play Guitar Play
TTITLE19=Don't Cry Joni
TTITLE20=Fifteen Years Ago
TTITLE21=To See An Angel Cry
TTITLE22=I'll Try
EXTD=YEAR: 1998
EXTT0=
EXTT1=
EXTT2=
EXTT3=
EXTT4=
EXTT5=
EXTT6=
EXTT7=
EXTT8=
EXTT9=
EXTT10=
EXTT11=
EXTT12=
EXTT13=
EXTT14=
EXTT15=
EXTT16=
EXTT17=
EXTT18=
EXTT19=
EXTT20=
EXTT21=
EXTT22=
PLAYORDER=
